PathFileType	4	(X/Y/Z)	C:\Git\research_data\Projects\torsion_deformities_healthy_kinematics\simulations\TD01\pre\dynamic_14_l\marker_experimental.trc
DataRate	CameraRate	NumFrames	NumMarkers	Units	OrigDataRate	OrigDataStartFrame	OrigNumFrames
200	200	8	30	mm	200	310	618
Frame#	Time	C7			T10			CLAV			STRN			RBAK			LASI			RASI			SACR			RT1			RT2			RT3			RKNE			RS1			RS2			RS3			RANK			RHEE			RTOE			LT1			LT2			LT3			LKNE			LS1			LS2			LS3			LANK			LHEE			LTOE			RHJC			LHJC		
		X1	Y1	Z1	X2	Y2	Z2	X3	Y3	Z3	X4	Y4	Z4	X5	Y5	Z5	X6	Y6	Z6	X7	Y7	Z7	X8	Y8	Z8	X9	Y9	Z9	X10	Y10	Z10	X11	Y11	Z11	X12	Y12	Z12	X13	Y13	Z13	X14	Y14	Z14	X15	Y15	Z15	X16	Y16	Z16	X17	Y17	Z17	X18	Y18	Z18	X19	Y19	Z19	X20	Y20	Z20	X21	Y21	Z21	X22	Y22	Z22	X23	Y23	Z23	X24	Y24	Z24	X25	Y25	Z25	X26	Y26	Z26	X27	Y27	Z27	X28	Y28	Z28	X29	Y29	Z29	X30	Y30	Z30	

310	1.545000	91.415627	1231.004761	-207.447983	46.475433	1046.794556	-201.216400	208.787659	1178.576538	-214.790298	255.120605	1045.852417	-219.150742	63.042976	1159.607910	-110.463737	188.785568	852.012695	-305.660645	180.338089	840.535034	-103.808952	20.744368	880.342285	-207.724701	132.531296	628.929321	-74.845802	91.798492	576.900818	-69.857376	140.602905	564.366699	-87.158234	91.280037	429.416077	-91.840240	-34.009747	363.562714	-64.383659	-92.986595	333.859100	-73.920425	-54.877686	301.199036	-74.465683	-225.249893	192.445175	-96.991196	-255.154770	229.725800	-148.375504	-195.795914	64.906235	-134.801895	194.287476	669.986267	-350.385925	192.423935	603.716064	-342.909393	239.279602	624.115662	-331.700470	264.398529	473.857666	-307.002075	247.202393	327.891785	-337.582764	243.599396	262.182739	-329.572601	288.941956	281.713867	-314.274292	257.303955	88.225441	-297.152740	217.626129	78.527924	-255.698807	404.944824	64.556534	-272.511322	118.013376	782.318284	-136.895214	124.198205	790.721662	-284.681078	
311	1.550000	98.295128	1232.041138	-207.895660	53.393757	1047.839233	-201.487534	215.657303	1179.704712	-215.315475	262.012939	1046.981079	-219.736969	70.120834	1160.801270	-110.871979	195.318848	853.491333	-306.361298	187.628616	841.343323	-104.446533	27.653511	881.323914	-207.619675	142.950027	629.234497	-75.452126	103.116333	576.500793	-70.252693	152.174805	564.765320	-87.446373	104.806267	429.093933	-91.770073	-20.474285	363.773163	-63.872250	-79.787758	334.684296	-73.255516	-42.064034	301.737518	-74.338020	-214.184875	196.260208	-96.637970	-243.497131	234.414902	-147.790344	-188.778519	67.247978	-134.774948	200.181458	670.835571	-350.968842	198.321350	604.627319	-343.407867	245.167923	624.907593	-331.930969	268.955261	474.020020	-307.540558	249.489487	328.015564	-337.769318	245.089645	262.356842	-329.522980	290.833160	281.338043	-314.757385	257.343658	88.258080	-297.013489	217.672638	78.561127	-255.572678	404.925079	64.678688	-272.611053	125.243584	783.151716	-137.504672	130.873795	792.045580	-285.331544	
312	1.555000	105.141121	1233.100098	-208.313324	60.273136	1048.904175	-201.765778	222.492462	1180.850342	-215.806290	268.854401	1048.120239	-220.281372	77.151535	1162.002808	-111.254143	201.836136	854.906433	-307.019623	194.815613	842.194397	-105.034096	34.517883	882.316650	-207.572113	153.257187	629.715088	-75.969887	114.281906	576.313599	-70.612305	163.588425	565.357544	-87.623421	118.349823	428.962982	-91.680542	-6.845234	364.089661	-63.384888	-66.486122	335.592163	-72.582748	-29.118803	302.386993	-74.306831	-202.858200	200.010971	-96.388748	-231.740265	238.852020	-147.319839	-180.703156	69.825706	-134.680359	205.966080	671.571411	-351.500061	203.962311	605.415100	-343.910889	250.810822	625.462463	-332.132599	273.181091	474.048004	-308.123199	251.292389	328.023590	-337.864014	246.174866	262.434052	-329.328827	292.353302	280.883331	-315.354645	257.342041	88.273933	-296.845612	217.693176	78.571739	-255.400879	404.905090	64.774673	-272.692871	132.376383	784.017311	-138.061914	137.516083	793.323746	-285.934774	
313	1.560000	111.953690	1234.176392	-208.701996	67.114250	1049.983643	-202.052948	229.293381	1182.007568	-216.262634	275.646484	1049.264893	-220.784378	84.132446	1163.204956	-111.613182	208.339325	856.251770	-307.637390	201.904556	843.086060	-105.573784	41.338669	883.316345	-207.581726	163.439178	630.380676	-76.395821	125.282524	576.348999	-70.933426	174.830063	566.152588	-87.690895	131.889145	429.037933	-91.563911	6.837814	364.549408	-62.936695	-53.120373	336.621368	-71.928177	-16.078773	303.177429	-74.360626	-191.290436	203.666534	-96.251297	-219.902115	242.999069	-146.989746	-171.558472	72.582291	-134.521790	211.630646	672.193054	-351.987396	209.317062	606.079041	-344.416931	256.190887	625.775330	-332.350952	277.108521	473.956390	-308.733856	252.682175	327.943512	-337.876709	246.916840	262.439362	-329.011444	293.554993	280.369324	-316.043030	257.312164	88.279381	-296.653748	217.693649	78.568199	-255.193176	404.889679	64.837784	-272.752930	139.416960	784.912525	-138.566396	144.127630	794.550683	-286.490133	
314	1.565000	118.733200	1235.264526	-209.062866	73.917992	1051.072021	-202.350616	236.060486	1183.171021	-216.684708	282.391022	1050.410522	-221.246933	91.061501	1164.400879	-111.952080	214.829742	857.523132	-308.217224	208.902130	844.016785	-106.069099	48.117222	884.319519	-207.647049	173.488907	631.235840	-76.728470	136.116364	576.609192	-71.213776	185.897491	567.154053	-87.653198	145.405212	429.330017	-91.412575	20.539568	365.184021	-62.543579	-39.722958	337.802368	-71.321579	-2.974853	304.131836	-74.484116	-179.496246	207.190918	-96.230843	-207.989807	246.818405	-146.820786	-161.357254	75.454178	-134.304901	217.167267	672.702393	-352.438812	214.372360	606.622131	-344.921478	261.304871	625.853088	-332.623962	280.774078	473.761414	-309.355347	253.738159	327.802826	-337.819092	247.384171	262.397278	-328.595062	294.495819	279.815765	-316.796082	257.265411	88.280647	-296.442535	217.679871	78.557999	-254.959015	404.881561	64.866982	-272.790558	146.371565	785.835576	-139.018750	150.710772	795.722665	-286.997802	
315	1.570000	125.480286	1236.359375	-209.397339	80.685425	1052.164185	-202.660065	242.794479	1184.335327	-217.073013	289.090088	1051.552734	-221.670380	97.937225	1165.584106	-112.273811	221.308182	858.717957	-308.762360	215.815872	844.984924	-106.524826	54.855053	885.323059	-207.765533	183.405777	632.280212	-76.968208	146.791733	577.089355	-71.451431	196.799057	568.360413	-87.517014	158.881317	429.846863	-91.219536	34.229652	366.016968	-62.221039	-26.319761	339.154816	-70.794220	10.168263	305.264313	-74.659279	-167.485092	210.544876	-96.329895	-196.001572	250.274460	-146.826965	-150.134216	78.374870	-134.037354	222.572006	673.104187	-352.861572	219.132858	607.050842	-345.417480	266.163788	625.714478	-332.978180	284.216644	473.480286	-309.970367	254.544785	327.627258	-337.704193	247.649994	262.330475	-328.105743	295.236847	279.241913	-317.585022	257.211792	88.283432	-296.216461	217.657440	78.547676	-254.707443	404.882050	64.865005	-272.807007	153.247135	786.784874	-139.420925	157.267506	796.837454	-287.458808	
316	1.575000	132.195816	1237.455688	-209.706924	87.417755	1053.254761	-202.982391	249.496231	1185.495361	-217.428299	295.746063	1052.687500	-222.056412	104.758766	1166.748657	-112.581291	227.775009	859.835632	-309.276611	222.653992	845.989075	-106.946785	61.553772	886.324524	-207.933655	193.195206	633.508850	-77.117104	157.325607	577.779114	-71.644424	207.551849	569.766174	-87.290649	172.302902	430.592072	-90.978752	47.882938	367.061829	-61.982746	-12.930172	340.685730	-70.376190	23.332018	306.578552	-74.866676	-155.262314	213.687881	-96.548218	-183.929077	253.335342	-147.015091	-137.942413	81.278236	-133.728622	227.845413	673.405701	-353.261749	223.620193	607.374817	-345.895996	270.791779	625.388428	-333.426575	287.475677	473.130371	-310.562225	255.188568	327.439789	-337.545654	247.789627	262.258911	-327.570526	295.841125	278.665771	-318.379547	257.160004	88.292534	-295.979584	217.631653	78.542801	-254.446854	404.891754	64.836777	-272.804535	160.051152	787.759301	-139.776056	163.799573	797.894540	-287.875030	
317	1.580000	138.880844	1238.548706	-209.993271	94.116318	1054.338989	-203.318329	256.166840	1186.646240	-217.751602	302.361481	1053.810547	-222.407059	111.525841	1167.888916	-112.877304	234.230209	860.876831	-309.764069	229.425003	847.027771	-107.341621	68.215057	887.321594	-208.147141	202.867569	634.913391	-77.178864	167.741425	578.664062	-71.790413	218.179169	571.362671	-86.983490	185.657272	431.565277	-90.685524	61.479523	368.321106	-61.839119	0.432394	342.388733	-70.093636	36.503529	308.067596	-75.086792	-142.830566	216.580475	-96.883057	-171.759659	255.973923	-147.384979	-124.848801	84.101715	-133.389282	232.992599	673.616699	-353.643677	227.870651	607.606689	-346.346893	275.223145	624.911804	-333.968353	290.589966	472.728546	-311.115692	255.755188	327.259552	-337.357147	247.878143	262.198975	-327.016510	296.372162	278.103394	-319.149017	257.117706	88.311676	-295.735596	217.607346	78.548004	-254.184845	404.910858	64.788132	-272.785431	166.791404	788.757862	-140.088247	170.308517	798.894515	-288.248928	
